<svg xmlns="http://www.w3.org/2000/svg" width="48.002" height="48" viewBox="0 0 48.002 48">
  <g id="Group_1412" data-name="Group 1412" transform="translate(-176 -53.276)">
    <path id="Path_1792" data-name="Path 1792" d="M468.742,53.276a1.838,1.838,0,0,1,1.234,1.964c-.036,4.232-.015,8.464-.017,12.7a3.118,3.118,0,0,1-.04.652,1.493,1.493,0,0,1-2.952-.339c0-2.28.012-4.56.019-6.84,0-.947,0-1.893,0-2.882L450.941,74.572l-2.185-2.193,16.105-16.1h-.57q-4.615,0-9.23,0a1.5,1.5,0,0,1-.621-2.9,1.242,1.242,0,0,0,.149-.1Z" transform="translate(-245.973)" fill="#fff"/>
    <path id="Path_1793" data-name="Path 1793" d="M176,330.807c.023-.02.055-.035.066-.06a1.523,1.523,0,0,1,1.724-1.035A1.55,1.55,0,0,1,179,331.421q-.016,4.451-.039,8.9c0,.185,0,.371,0,.546l16.01-16.011,2.193,2.192-16.128,16.128h.623q4.522,0,9.043,0a2.711,2.711,0,0,1,.694.068,1.469,1.469,0,0,1,1.094,1.548,1.5,1.5,0,0,1-1.369,1.371c-.171.016-.343.009-.515.009-4.2,0-8.4-.017-12.6.013a1.96,1.96,0,0,1-2-1.138Z" transform="translate(0 -244.916)" fill="#fff"/>
  </g>
</svg>
