<svg xmlns="http://www.w3.org/2000/svg" width="55.986" height="51.203" viewBox="0 0 55.986 51.203">
  <g id="Group_1398" data-name="Group 1398" transform="translate(-229 -122.358)">
    <path id="Path_1785" data-name="Path 1785" d="M229,170.272V127.079a1.954,1.954,0,0,1,2.125-1.243c1.273.055,2.55.013,3.826.013h.61c0-.572,0-1.062,0-1.553a1.69,1.69,0,0,1,1.947-1.927c5.193,0,10.386.016,15.578-.011a5.458,5.458,0,0,1,3.892,1.107,4.949,4.949,0,0,1,3.164-1.1c5.484.012,10.969,0,16.453.006a1.656,1.656,0,0,1,1.83,1.824c0,.538,0,1.076,0,1.655,1.571,0,3.062,0,4.553,0,1.427,0,2.007.59,2.007,2.031q0,20.8,0,41.6c0,1.44-.577,2.017-2.017,2.017q-10.167,0-20.334.014a1.54,1.54,0,0,0-.912.338,7.379,7.379,0,0,1-9.459,0,1.54,1.54,0,0,0-.912-.337q-10.112-.028-20.224,0A2.007,2.007,0,0,1,229,170.272Zm49.425-41.114v.7q0,16.538,0,33.077c0,1.431-.585,2.018-2.023,2.018q-19.409,0-38.818,0c-1.434,0-2.023-.591-2.023-2.019q0-16.539,0-33.077v-.7h-3.242v39.056h.69c6.36,0,12.721.008,19.081-.01a2.539,2.539,0,0,1,2.027.842,3.941,3.941,0,0,0,5.753,0,2.538,2.538,0,0,1,2.026-.842c6.379.017,12.757.01,19.136.01h.645V129.158Zm-39.539-3.508v35.992h16.438c.011-.168.028-.309.028-.451q0-17,0-34a1.379,1.379,0,0,0-1.555-1.543q-5.438-.005-10.877,0Zm36.224,35.993V125.65H260.381c-1.287,0-1.748.457-1.748,1.735q0,16.835,0,33.669v.588Z" fill="#fff"/>
    <path id="Path_1786" data-name="Path 1786" d="M318.818,274.929q0-2.349,0-4.7a1.654,1.654,0,0,1,1.806-1.845q3.168-.008,6.335,0a1.646,1.646,0,0,1,1.807,1.789q.007,4.751,0,9.5a1.668,1.668,0,0,1-1.833,1.827q-3.14.007-6.281,0a1.669,1.669,0,0,1-1.834-1.826C318.815,278.1,318.818,276.513,318.818,274.929Zm6.635,3.285v-6.506h-3.309v6.506Z" transform="translate(-76.696 -124.694)" fill="#fff"/>
    <path id="Path_1787" data-name="Path 1787" d="M323.8,178.565c1.073,0,2.146-.005,3.219,0a1.64,1.64,0,0,1,1.759,1.614A1.662,1.662,0,0,1,327,181.843q-3.192.012-6.384,0a1.645,1.645,0,1,1,.018-3.277C321.693,178.561,322.748,178.565,323.8,178.565Z" transform="translate(-76.711 -47.995)" fill="#fff"/>
    <path id="Path_1788" data-name="Path 1788" d="M323.865,223.476c1.055,0,2.11-.006,3.165,0a1.641,1.641,0,1,1,.02,3.275q-3.246.016-6.493,0a1.64,1.64,0,1,1,.034-3.275C321.682,223.471,322.773,223.476,323.865,223.476Z" transform="translate(-76.709 -86.345)" fill="#fff"/>
    <path id="Path_1789" data-name="Path 1789" d="M454.3,185.1q0-2.349,0-4.7a1.653,1.653,0,0,1,1.808-1.842q3.168-.007,6.335,0a1.645,1.645,0,0,1,1.8,1.79q.007,4.751,0,9.5a1.669,1.669,0,0,1-1.836,1.825q-3.14.007-6.281,0a1.669,1.669,0,0,1-1.832-1.829C454.3,188.271,454.3,186.687,454.3,185.1Zm3.3,3.255h3.34v-6.479H457.6Z" transform="translate(-192.39 -47.993)" fill="#fff"/>
    <path id="Path_1790" data-name="Path 1790" d="M459.314,290.842c1.073,0,2.146-.007,3.219,0a1.635,1.635,0,0,1,1.731,1.643,1.654,1.654,0,0,1-1.751,1.632q-3.219.013-6.439,0a1.643,1.643,0,1,1,.02-3.276C457.167,290.837,458.241,290.842,459.314,290.842Z" transform="translate(-192.402 -143.869)" fill="#fff"/>
    <path id="Path_1791" data-name="Path 1791" d="M459.289,335.756c1.073,0,2.146-.006,3.219,0a1.64,1.64,0,0,1,1.757,1.618,1.659,1.659,0,0,1-1.78,1.658q-3.192.01-6.384,0a1.645,1.645,0,1,1,.024-3.277C457.179,335.752,458.234,335.756,459.289,335.756Z" transform="translate(-192.402 -182.223)" fill="#fff"/>
  </g>
</svg>
