<svg xmlns="http://www.w3.org/2000/svg" width="35.411" height="44.614" viewBox="0 0 35.411 44.614">
  <g id="Group_1343" data-name="Group 1343" transform="translate(-798.322 -880.693)">
    <g id="Group_1340" data-name="Group 1340" transform="translate(833.733 803.934) rotate(90)">
      <g id="Group_1226" data-name="Group 1226" transform="translate(102.297 0)">
        <path id="Path_1632" data-name="Path 1632" d="M120.974,16.734,104.622.383A1.363,1.363,0,0,0,102.7,2.31L118.084,17.7,102.7,33.086a1.362,1.362,0,0,0,1.927,1.927l16.351-16.351A1.363,1.363,0,0,0,120.974,16.734Z" transform="translate(-102.297 0)" fill="#DF7861"/>
      </g>
    </g>
    <g id="Group_1341" data-name="Group 1341" transform="translate(833.733 790.934) rotate(90)" opacity="0.5">
      <g id="Group_1226-2" data-name="Group 1226" transform="translate(102.297 0)">
        <path id="Path_1632-2" data-name="Path 1632" d="M120.974,16.734,104.622.383A1.363,1.363,0,0,0,102.7,2.31L118.084,17.7,102.7,33.086a1.362,1.362,0,0,0,1.927,1.927l16.351-16.351A1.363,1.363,0,0,0,120.974,16.734Z" transform="translate(-102.297 0)" fill="#DF7861"/>
      </g>
    </g>
    <g id="Group_1342" data-name="Group 1342" transform="translate(833.733 778.396) rotate(90)" opacity="0.2">
      <g id="Group_1226-3" data-name="Group 1226" transform="translate(102.297 0)">
        <path id="Path_1632-3" data-name="Path 1632" d="M120.974,16.734,104.622.383A1.363,1.363,0,0,0,102.7,2.31L118.084,17.7,102.7,33.086a1.362,1.362,0,0,0,1.927,1.927l16.351-16.351A1.363,1.363,0,0,0,120.974,16.734Z" transform="translate(-102.297 0)" fill="#DF7861"/>
      </g>
    </g>
  </g>
</svg>
