<svg xmlns="http://www.w3.org/2000/svg" width="32.398" height="27.401" viewBox="0 0 32.398 27.401">
  <g id="Group_1352" data-name="Group 1352" transform="translate(-165 -83.985)">
    <path id="Path_1733" data-name="Path 1733" d="M165,93.057a2.006,2.006,0,0,1,1.856-1.34c.486-.01.972,0,1.458,0h.485c0-.548-.006-1.072,0-1.6a3.8,3.8,0,0,1,.061-.785,1.9,1.9,0,0,1,1.829-1.475c.642-.011,1.284,0,1.97,0,0-.671-.005-1.312,0-1.953a1.727,1.727,0,0,1,.812-1.527,2.253,2.253,0,0,1,1.084-.366c2.282-.033,4.564-.03,6.846-.01a1.849,1.849,0,0,1,1.7,1.091c.342.666.676,1.337.99,2.017a.488.488,0,0,0,.522.33q5.341-.016,10.682-.006a1.958,1.958,0,0,1,2.07,1.626,2.6,2.6,0,0,1,.031.473q0,6.022,0,12.044a1.947,1.947,0,0,1-2.086,2.074c-.579,0-1.158,0-1.775,0,0,.585,0,1.141,0,1.7a1.964,1.964,0,0,1-2.156,2.164h-1.7c0,.59-.028,1.149.006,1.7a2.039,2.039,0,0,1-2.171,2.168q-10.032-.034-20.065,0a2.346,2.346,0,0,1-2.445-1.34Zm22.75,4h-.4q-5.34,0-10.681,0a1.964,1.964,0,0,1-1.9-1.182c-.326-.662-.658-1.322-.974-1.99a.4.4,0,0,0-.427-.271c-2.071.01-4.141.006-6.212.007-.1,0-.2.01-.29.014v15.807H187.75Zm-13.172-9.2c.941,0,1.848.011,2.754,0a2,2,0,0,1,1.988,1.241c.3.638.634,1.263.929,1.905a.443.443,0,0,0,.477.3q5.339-.013,10.679-.006a1.961,1.961,0,0,1,2.13,2.129q0,3.96,0,7.921v.373h1.934V89.344h-.427c-3.5,0-6.993-.01-10.489.007a2.1,2.1,0,0,1-2.132-1.322c-.281-.625-.612-1.227-.9-1.848a.425.425,0,0,0-.451-.289c-2.06.01-4.119.006-6.179.006h-.311Zm-3.862,3.86c.968,0,1.906,0,2.844,0a1.921,1.921,0,0,1,1.851,1.147c.334.67.674,1.338.991,2.016a.422.422,0,0,0,.454.28c3.539-.008,7.079.021,10.618-.02a2.091,2.091,0,0,1,2.216,2.228c-.051,2.619-.015,5.239-.015,7.859v.354h1.935V93.2h-.39c-3.539,0-7.079-.007-10.618,0a2.036,2.036,0,0,1-2.011-1.258c-.3-.639-.631-1.265-.929-1.906a.422.422,0,0,0-.45-.286c-2.06.011-4.12.006-6.18.007-.1,0-.2.009-.315.015Z" fill="#fff"/>
    <path id="Path_1734" data-name="Path 1734" d="M459.11,420.253a4.345,4.345,0,0,1,.048-.471.955.955,0,0,1,.941-.742.937.937,0,0,1,.907.78,3.738,3.738,0,0,1,.019.788.938.938,0,0,1-.933.892.953.953,0,0,1-.963-.9c-.011-.115,0-.232,0-.348Z" transform="translate(-275.395 -313.735)" fill="#fff"/>
    <path id="Path_1735" data-name="Path 1735" d="M415.447,420.254a3.5,3.5,0,0,1,.058-.532.963.963,0,0,1,.929-.678.915.915,0,0,1,.889.721,3.3,3.3,0,0,1,.019.941.919.919,0,0,1-.981.8.946.946,0,0,1-.894-.9c-.009-.115,0-.232,0-.348Z" transform="translate(-234.511 -313.737)" fill="#fff"/>
  </g>
</svg>
