<svg xmlns="http://www.w3.org/2000/svg" width="36.031" height="32" viewBox="0 0 36.031 32">
  <g id="Group_1351" data-name="Group 1351" transform="translate(-216 -116.617)">
    <path id="Path_1729" data-name="Path 1729" d="M216,250.667c.3-.55.86-.558,1.365-.635a25.294,25.294,0,0,1,5.577-.1,58.068,58.068,0,0,1,8.158,1.211,1.036,1.036,0,0,0,.6-.063,22.035,22.035,0,0,1,6.358-1.673,38.759,38.759,0,0,1,9.747.09c1.147.147,2.278.416,3.417.629a1.1,1.1,0,0,1,.809.546v18.261a.885.885,0,0,1-.923.551q-17.093,0-34.185,0a.884.884,0,0,1-.922-.551Zm1.423,3.193V260a1.313,1.313,0,0,0,.149.037c.1.013.21.023.315.031a10.835,10.835,0,0,1,4.69,1.45,12.271,12.271,0,0,1,5.3,6.209.459.459,0,0,0,.506.349c3.131-.012,6.262-.007,9.392-.008.109,0,.218-.011.386-.021-.16-.206-.279-.362-.4-.517a28.772,28.772,0,0,0-7.531-6.887,23.829,23.829,0,0,0-6.6-2.8c-.513-.133-.749-.478-.643-.88.112-.424.492-.6,1.015-.468a25.1,25.1,0,0,1,8.734,4.142,31.969,31.969,0,0,1,6.965,7.137.625.625,0,0,0,.573.3c3.318-.011,6.637-.007,9.955-.007h.369c.061-.644.061-.643-.181-.881a45.564,45.564,0,0,0-14.69-9.62,47.507,47.507,0,0,0-15.86-3.7C219.063,253.824,218.255,253.86,217.423,253.86Zm33.2,11.495v-4.933c0-.058.022-.131,0-.173a.88.88,0,0,0-.256-.318,73.622,73.622,0,0,0-22.738-8.03,41.337,41.337,0,0,0-8.257-.648c-.65.021-1.3.1-1.96.157v.939A50.5,50.5,0,0,1,250.623,265.354Zm-10.194-11.56.013.069c1.321.537,2.64,1.081,3.968,1.6a1.008,1.008,0,0,0,.6.031,13.722,13.722,0,0,1,4.8-.493c.263.021.526.046.818.071,0-1.176.005-2.321-.011-3.466,0-.083-.151-.222-.247-.238-1.235-.2-2.469-.433-3.712-.573a33.757,33.757,0,0,0-10.362.3c-.821.162-1.626.4-2.439.608,1.261.452,2.5.828,3.746,1.2a.713.713,0,0,0,.312-.009c1.21-.215,2.412-.495,3.63-.634s2.455-.149,3.684-.194a.683.683,0,0,1,.733.653c.026.424-.31.725-.838.744-.785.028-1.571.03-2.354.085S241.207,253.711,240.429,253.795Zm-23,14.25h9.041a10.293,10.293,0,0,0-9.041-6.578Zm33.174-9.608v-1.919a11.259,11.259,0,0,0-3.78.021Z" transform="translate(0 -120.862)" fill="#fff"/>
    <path id="Path_1730" data-name="Path 1730" d="M320.849,120.05a3.444,3.444,0,0,1-6.888,0,3.444,3.444,0,0,1,6.888,0Zm-1.411.007a2.033,2.033,0,1,0-2.026,2.032A2.022,2.022,0,0,0,319.438,120.057Z" transform="translate(-89.343)" fill="#fff"/>
    <path id="Path_1731" data-name="Path 1731" d="M271.96,328.109a.7.7,0,0,1,.725-.658.714.714,0,0,1,.672.719.7.7,0,0,1-.749.67A.691.691,0,0,1,271.96,328.109Z" transform="translate(-51.036 -192.287)" fill="#fff"/>
    <path id="Path_1732" data-name="Path 1732" d="M566.238,284.124a.681.681,0,0,1-.68.7.7.7,0,1,1-.035-1.4A.7.7,0,0,1,566.238,284.124Z" transform="translate(-318.135 -152.134)" fill="#fff"/>
  </g>
</svg>
