<svg xmlns="http://www.w3.org/2000/svg" width="26.044" height="26" viewBox="0 0 26.044 26">
  <g id="Group_1350" data-name="Group 1350" transform="translate(-216 -93.967)">
    <path id="Path_1724" data-name="Path 1724" d="M253.152,120.418h-.407l-.323-.186q-5.166-2.985-10.334-5.967a.97.97,0,0,1-.537-.925q.011-5.913,0-11.827a.987.987,0,0,1,.551-.943q5.16-2.969,10.31-5.958a.962.962,0,0,1,1.068,0q5.159,3,10.33,5.973a.971.971,0,0,1,.532.928q-.01,5.913,0,11.827a.961.961,0,0,1-.535.925c-.95.537-1.892,1.089-2.837,1.636Zm8.872-19.091c-.059-.041-.085-.063-.114-.08q-4.395-2.542-8.788-5.087a.319.319,0,0,0-.369.015q-4.349,2.52-8.7,5.036c-.054.032-.105.069-.178.117.075.047.122.08.172.109q4.359,2.5,8.716,5.007a.357.357,0,0,0,.414-.03q4.3-2.472,8.609-4.939C261.857,101.434,261.926,101.388,262.024,101.327Zm-9.848,17c.005-.086.009-.119.009-.153q0-5.063,0-10.126a.313.313,0,0,0-.2-.306q-4.331-2.477-8.658-4.959c-.071-.04-.145-.075-.229-.119v9.513c.106-.057.187-.1.267-.145l5.973-3.415a2.564,2.564,0,0,1,.246-.132.752.752,0,0,1,1.037.477.773.773,0,0,1-.459.936l-6.037,3.456c-.078.045-.153.095-.264.163Zm9.863-4.811c-.127-.075-.206-.123-.286-.169l-5.926-3.394a2.45,2.45,0,0,1-.3-.189.731.731,0,0,1-.241-.842.7.7,0,0,1,.721-.491,1.321,1.321,0,0,1,.519.173q3.013,1.711,6.018,3.436c.078.045.159.084.251.132v-9.509c-.083.042-.144.07-.2.1q-4.35,2.493-8.7,4.983a.331.331,0,0,0-.184.342q.006,4.986,0,9.973c0,.073.006.146.011.26Z" transform="translate(-23.926 -0.452)" fill="#fff"/>
    <path id="Path_1725" data-name="Path 1725" d="M216,430.689c.03-.048.062-.094.089-.144a.764.764,0,0,1,.851-.4.751.751,0,0,1,.584.736c.008.675,0,1.35,0,2.026,0,.092,0,.184,0,.317h.279c.634,0,1.268,0,1.9,0a.763.763,0,0,1,.3,1.495.172.172,0,0,0-.038.032H216.61a.974.974,0,0,1-.61-.609Z" transform="translate(0 -314.784)" fill="#fff"/>
    <path id="Path_1726" data-name="Path 1726" d="M554.167,434.732l-.134-.063a.772.772,0,0,1-.466-.841.753.753,0,0,1,.757-.62c.659-.007,1.319,0,1.979,0h.3v-1.152c0-.371,0-.743,0-1.114a.762.762,0,0,1,1.479-.32.245.245,0,0,0,.048.052v3.452a.975.975,0,0,1-.61.609Z" transform="translate(-316.09 -314.765)" fill="#fff"/>
    <path id="Path_1727" data-name="Path 1727" d="M216,94.583a.9.9,0,0,1,.986-.615c.93.021,1.862,0,2.792.008a.758.758,0,0,1,.688,1.152.771.771,0,0,1-.707.369c-.652,0-1.3,0-1.955,0h-.277v1.483c0,.27,0,.541,0,.811a.76.76,0,0,1-1.479.283c-.013-.031-.031-.059-.047-.089Z" transform="translate(0 0)" fill="#fff"/>
    <path id="Path_1728" data-name="Path 1728" d="M558.184,97.984a.864.864,0,0,1-.559.574.753.753,0,0,1-.966-.744c-.009-.759,0-1.519,0-2.318h-.3c-.635,0-1.269,0-1.9,0a.765.765,0,1,1,.007-1.522c.914,0,1.828.014,2.741-.007a.9.9,0,0,1,.986.615Z" transform="translate(-316.14 0)" fill="#fff"/>
  </g>
</svg>
