<svg xmlns="http://www.w3.org/2000/svg" viewBox="0 0 20 20">
    <path fill="#fff" d="M965.212,2167h-6.024a6.991,6.991,0,0,0-6.988,6.985v6.023a6.991,6.991,0,0,0,6.988,6.987h6.024a6.99,6.99,0,0,0,6.988-6.986v-6.023a7.15,7.15,0,0,0-2.072-5.023A6.636,6.636,0,0,0,965.212,2167Zm1.285,10.038a4.519,4.519,0,0,1-2.566,4.276,4.223,4.223,0,0,1-4.783-.868,4.623,4.623,0,0,1-1.013-4.926,4.344,4.344,0,0,1,4.025-2.818,4.164,4.164,0,0,1,3.04,1.232,4.482,4.482,0,0,1,1.3,3.107Zm1.285-4.336a1.121,1.121,0,1,1,1.125-1.121,1.141,1.141,0,0,1-.333.806,1.058,1.058,0,0,1-.791.31Z" transform="translate(-952.2 -2166.996)"></path>
</svg>