<svg xmlns="http://www.w3.org/2000/svg" width="73.23" height="67.069" viewBox="0 0 73.23 67.069">
  <g id="Group_1365" data-name="Group 1365" transform="translate(-229 -122.016)">
    <path id="Path_1740" data-name="Path 1740" d="M229,146.846c.087-.266.182-.529.261-.8a6.226,6.226,0,0,1,5.879-4.5c1.042-.019,2.084,0,3.148,0,.117-1.13.225-2.148-.758-2.923a9.388,9.388,0,0,1-1.018-1.1,5.348,5.348,0,0,1-1.572-3.443,51.441,51.441,0,0,1,.082-6.706,6.032,6.032,0,0,1,5.7-5.287,23.578,23.578,0,0,1,4.634.082,6.1,6.1,0,0,1,5.143,5.7,57.62,57.62,0,0,1,.021,6,5.58,5.58,0,0,1-1.552,3.6,9.3,9.3,0,0,1-1.066,1.153c-.986.774-.894,1.788-.766,2.915.946,0,1.868,0,2.791,0a6.265,6.265,0,0,1,6.24,4.419c.061.171.227.432.349.435,1.4.031,2.8.02,4.272.02,0-.832.021-1.565-.015-2.295a1.052,1.052,0,0,0-.317-.531c-.6-.68-1.212-1.346-1.819-2.018a5.735,5.735,0,0,1-1.664-3.635,55.172,55.172,0,0,1,.059-7.491,6.8,6.8,0,0,1,6.445-6.013c.908-.072,1.478.293,1.546.99s-.439,1.144-1.352,1.223a4.785,4.785,0,0,0-4.421,3.639,5.2,5.2,0,0,0-.15,1.2c-.016,1.859-.014,3.717-.006,5.576a4.465,4.465,0,0,0,1.238,3.11c.729.787,1.479,1.556,2.157,2.385a2.221,2.221,0,0,1,.5,1.187c.067,1.164.033,2.334.02,3.5-.01.947-.4,1.324-1.367,1.329-1.43.007-2.86-.007-4.29,0a4.745,4.745,0,0,0-4.89,4.868c-.013,2.145,0,4.29,0,6.435a2.519,2.519,0,0,0,.037.276h26.182c0-.377,0-.729,0-1.081,0-1.835.014-3.67,0-5.505a4.738,4.738,0,0,0-5.047-4.993c-1.358-.005-2.717,0-4.075,0-1.026,0-1.387-.355-1.393-1.357-.007-1.168-.039-2.337.02-3.5a2.065,2.065,0,0,1,.459-1.126c.727-.881,1.531-1.7,2.291-2.553a4.271,4.271,0,0,0,1.119-2.933c0-1.883.017-3.766,0-5.648a4.771,4.771,0,0,0-4.521-4.808c-.095-.008-.191-.011-.285-.024-.764-.109-1.157-.557-1.086-1.235a1.11,1.11,0,0,1,1.274-.97,7.03,7.03,0,0,1,6.593,5.289,9.934,9.934,0,0,1,.235,2.123c.033,1.644,0,3.289.014,4.933a6.869,6.869,0,0,1-1.969,5.051,7.345,7.345,0,0,1-.774.839c-1.265.945-1.368,2.23-1.1,3.743H274.9c.078-.212.161-.43.239-.651a6.219,6.219,0,0,1,5.812-4.2c1.023-.015,2.047,0,3.152,0,.017-1.011.309-2-.654-2.773a11.249,11.249,0,0,1-1.164-1.257,6.087,6.087,0,0,1-1.631-4.3c.018-1.9-.067-3.822.118-5.711a6.106,6.106,0,0,1,5.671-5.411,24.891,24.891,0,0,1,4.636.065,6.069,6.069,0,0,1,5.189,5.583,51.468,51.468,0,0,1,.019,6.285,5.455,5.455,0,0,1-1.544,3.458,7.812,7.812,0,0,1-.872.944,2.862,2.862,0,0,0-.915,3.116h3a6.051,6.051,0,0,1,3.953,1.413,5.953,5.953,0,0,1,2.29,4.583c.06,2.405.026,4.814.017,7.22A1.094,1.094,0,0,1,300.985,156q-8.329.012-16.658,0a1.115,1.115,0,0,1-1.25-1.084c0-.656.5-1.09,1.311-1.091q7.328-.008,14.656,0h.821c.063-.078.118-.115.118-.152.006-2.071.1-4.149-.018-6.213a3.953,3.953,0,0,0-4.052-3.73c-1.31-.026-2.621,0-3.932-.009-.921-.008-1.3-.39-1.328-1.3a1.148,1.148,0,0,0,0-.143,6.134,6.134,0,0,1,2.321-6.156,3.5,3.5,0,0,0,1.161-2.891c-.012-1.549.016-3.1-.007-4.647a4.142,4.142,0,0,0-4.436-4.346c-.906,0-1.811-.013-2.717,0a4.089,4.089,0,0,0-4.082,4.032c-.041,1.739-.01,3.479-.01,5.219a3.668,3.668,0,0,0,1.019,2.522c.655.725,1.345,1.42,1.964,2.174a1.982,1.982,0,0,1,.454,1.063c.059,1.069.032,2.144.017,3.216-.012.855-.414,1.243-1.294,1.252-1.263.012-2.526,0-3.789.005a4.093,4.093,0,0,0-4.2,3.349c.174.112.368.235.561.361a6.775,6.775,0,0,1,3.267,5.783c.056,2.62.02,5.243.012,7.864,0,.938-.414,1.341-1.367,1.342q-13.941.006-27.883,0c-.992,0-1.36-.385-1.362-1.4q-.008-3.789,0-7.578a6.816,6.816,0,0,1,3.559-6.185c.1-.06.2-.122.284-.176a3.993,3.993,0,0,0-3.979-3.353c-1.31-.025-2.621,0-3.932-.009-.956-.008-1.329-.39-1.336-1.354-.008-1-.054-2.006.023-3a2.449,2.449,0,0,1,.526-1.246c.59-.746,1.273-1.418,1.909-2.127a3.746,3.746,0,0,0,1-2.6c-.007-1.668.022-3.337-.009-5a4.1,4.1,0,0,0-4.192-4.145c-1-.012-2-.017-3,0a4.038,4.038,0,0,0-4,3.8,47.767,47.767,0,0,0,.018,5.643,4.91,4.91,0,0,0,.937,2.243c.544.8,1.325,1.434,1.931,2.2a2.45,2.45,0,0,1,.523,1.252c.076,1,.033,2,.021,3-.011.952-.4,1.332-1.358,1.339-1.287.009-2.574-.015-3.861.007a4.007,4.007,0,0,0-4.119,3.9c-.091,1.95-.025,3.907-.023,5.861a1.639,1.639,0,0,0,.084.331h15.362a4.935,4.935,0,0,1,.714.018,1,1,0,0,1,.945,1.064,1.021,1.021,0,0,1-.934,1.08,3.151,3.151,0,0,1-.571.019c-5.433,0-10.867-.009-16.3.012a1.567,1.567,0,0,1-1.5-.738Z" fill="#82c14e"/>
    <path id="Path_1741" data-name="Path 1741" d="M261.992,332.038a4.836,4.836,0,0,1-.55.792c-1.206,1.253-2.45,2.47-3.647,3.732a1.181,1.181,0,0,0-.283.851c.228,1.77.544,3.53.745,5.3a1.865,1.865,0,0,1-.4,1.257c-.342.415-.86.249-1.314.018-1.548-.787-3.112-1.546-4.649-2.354a1.133,1.133,0,0,0-1.178.012c-1.521.789-3.062,1.538-4.587,2.318a1.207,1.207,0,0,1-1.4.016,1.261,1.261,0,0,1-.4-1.35c.281-1.715.548-3.432.761-5.157a1.368,1.368,0,0,0-.336-.974c-1.174-1.25-2.388-2.463-3.606-3.672-.4-.4-.741-.887-.433-1.379a1.948,1.948,0,0,1,1.166-.762c1.656-.331,3.33-.574,5-.822a1.131,1.131,0,0,0,.961-.7c.742-1.517,1.54-3.007,2.312-4.51.249-.484.532-.912,1.161-.906s.9.437,1.151.922c.781,1.525,1.554,3.055,2.376,4.558a1.269,1.269,0,0,0,.777.565c1.707.322,3.426.581,5.139.868C261.61,330.809,261.986,331.162,261.992,332.038Zm-6.165,9.119c-.14-.911-.282-1.7-.381-2.5-.372-2.973-.773-2.051,1.329-4.215.587-.6,1.183-1.2,1.856-1.884-1.381-.23-2.593-.48-3.817-.618a1.96,1.96,0,0,1-1.735-1.248c-.523-1.14-1.142-2.236-1.773-3.452-.63,1.217-1.247,2.316-1.772,3.457a1.974,1.974,0,0,1-1.739,1.246c-1.232.143-2.452.4-3.678.6l-.1.216c.829.783,1.619,1.615,2.5,2.337a2.329,2.329,0,0,1,.807,2.6c-.249,1.1-.35,2.226-.534,3.468,1.257-.63,2.4-1.153,3.5-1.771a1.932,1.932,0,0,1,2.076.016C253.461,340.011,254.6,340.544,255.827,341.157Z" transform="translate(-9.376 -163.196)" fill="#82c14e"/>
    <path id="Path_1742" data-name="Path 1742" d="M514.235,332.014a3.934,3.934,0,0,1-.5.758c-1.222,1.27-2.485,2.5-3.694,3.785a1.269,1.269,0,0,0-.281.917c.222,1.747.536,3.483.733,5.232a1.852,1.852,0,0,1-.4,1.26c-.372.443-.9.237-1.377,0-1.569-.8-3.138-1.6-4.727-2.356a1.177,1.177,0,0,0-.895,0c-1.59.756-3.159,1.555-4.729,2.351a1.213,1.213,0,0,1-1.4.027,1.26,1.26,0,0,1-.407-1.348c.284-1.738.55-3.48.775-5.227a1.193,1.193,0,0,0-.288-.858c-1.2-1.262-2.424-2.5-3.658-3.721-.4-.4-.749-.881-.441-1.377a1.938,1.938,0,0,1,1.16-.768c1.632-.327,3.283-.566,4.931-.807a1.243,1.243,0,0,0,1.07-.767c.723-1.5,1.516-2.966,2.278-4.447.248-.484.526-.915,1.156-.915s.905.427,1.154.914c.781,1.525,1.555,3.054,2.377,4.557a1.269,1.269,0,0,0,.773.571c1.707.323,3.425.581,5.138.87C513.844,330.81,514.222,331.161,514.235,332.014Zm-10.69-4.775c-.659,1.274-1.279,2.4-1.825,3.557a1.844,1.844,0,0,1-1.583,1.133c-1.26.164-2.511.4-3.765.609l-.113.2c.855.817,1.67,1.682,2.576,2.438a2.216,2.216,0,0,1,.744,2.416c-.236,1.135-.363,2.293-.557,3.57,1.132-.564,2.189-1.005,3.154-1.6a2.411,2.411,0,0,1,2.783.017c.96.578,2,1.021,3.106,1.572-.207-1.388-.341-2.643-.6-3.872a1.9,1.9,0,0,1,.66-1.959c.914-.855,1.767-1.774,2.741-2.761-1.384-.229-2.613-.469-3.853-.626a1.886,1.886,0,0,1-1.651-1.146C504.821,329.627,504.2,328.5,503.545,327.239Z" transform="translate(-213.428 -163.197)" fill="#82c14e"/>
    <path id="Path_1743" data-name="Path 1743" d="M370.449,385.155c.253-1.658.514-3.472.818-5.278a1.068,1.068,0,0,0-.343-1.066c-1.224-1.2-2.414-2.437-3.624-3.652a1.259,1.259,0,0,1-.5-1.32c.183-.582.654-.747,1.211-.833,1.717-.265,3.432-.539,5.138-.864a1.281,1.281,0,0,0,.772-.585c.832-1.523,1.618-3.072,2.408-4.619a1.265,1.265,0,0,1,1.118-.863,1.251,1.251,0,0,1,1.128.848c.789,1.547,1.569,3.1,2.405,4.62a1.365,1.365,0,0,0,.838.6c1.729.329,3.478.556,5.2.907a1.571,1.571,0,0,1,1.03.8,1.425,1.425,0,0,1-.351,1.181c-1.194,1.3-2.445,2.54-3.7,3.773a1.1,1.1,0,0,0-.356,1.072c.276,1.667.524,3.338.789,5.006a1.19,1.19,0,0,1-1.859,1.38c-1.525-.778-3.048-1.562-4.6-2.29a1.366,1.366,0,0,0-1.031.006c-1.614.759-3.192,1.593-4.8,2.37C371.2,386.8,370.426,386.315,370.449,385.155Zm7.007-15.583c-.62,1.2-1.22,2.2-1.672,3.27a2.276,2.276,0,0,1-2.12,1.483c-1.141.11-2.269.36-3.646.59.846.8,1.488,1.513,2.234,2.091a2.992,2.992,0,0,1,1.142,3.555,21.881,21.881,0,0,0-.443,2.931,28.418,28.418,0,0,0,2.789-1.43,2.869,2.869,0,0,1,3.482.021,28.578,28.578,0,0,0,2.753,1.4c-.2-1.363-.338-2.567-.576-3.75a2.009,2.009,0,0,1,.653-2.1c.923-.837,1.768-1.762,2.729-2.735-1.454-.247-2.76-.506-4.076-.678a1.671,1.671,0,0,1-1.393-1.05C378.742,372,378.124,370.86,377.456,369.573Z" transform="translate(-111.435 -197.433)" fill="#82c14e"/>
  </g>
</svg>
