<svg xmlns="http://www.w3.org/2000/svg" width="55.407" height="55.397" viewBox="0 0 55.407 55.397">
  <g id="Group_1366" data-name="Group 1366" transform="translate(-229 -105.949)">
    <path id="Path_1744" data-name="Path 1744" d="M282.128,161.345H235.709a2.551,2.551,0,0,0-.3-.1,7.493,7.493,0,0,1-6.141-5.466c-.107-.339-.177-.691-.264-1.036v-42.3a1.338,1.338,0,0,0,.093-.245,7.263,7.263,0,0,1,5.768-6.062,17.012,17.012,0,0,1,3.12-.177,2.776,2.776,0,0,1,3.025,3.026q0,4.623,0,9.246v.641h.635q11.331,0,22.661.007a1.153,1.153,0,0,0,.9-.369q5.781-5.8,11.583-11.589a2.8,2.8,0,0,1,4.251,0q1.174,1.159,2.333,2.332a2.826,2.826,0,0,1,.014,4.367q-2.367,2.375-4.741,4.743c-.133.133-.256.277-.474.513,1.163,0,2.2-.007,3.238,0a2.779,2.779,0,0,1,2.993,3.01q0,18.222,0,36.444a3.945,3.945,0,0,1-.067.8A2.891,2.891,0,0,1,282.128,161.345Zm-41.121-40.588v.7q0,11.952,0,23.9a2.8,2.8,0,0,1-3.057,3.063c-.721.006-1.445-.012-2.162.043a5.5,5.5,0,0,0-4.865,6.254,5.714,5.714,0,0,0,5.872,4.777q22.261.007,44.521,0c.929,0,1.24-.307,1.24-1.226q0-18.172,0-36.344c0-.891-.305-1.2-1.206-1.2-1.5-.005-2.993.011-4.49-.01a1.253,1.253,0,0,0-.994.4c-2.717,2.74-5.451,5.462-8.172,8.2a3.564,3.564,0,0,1-2.095,1.145,40.178,40.178,0,0,1-4.248.387c-4.093.051-8.186.018-12.28.018h-.658v10.107H270.55v-.636c0-1.262,0-2.524,0-3.786a.928.928,0,1,1,1.841-.027c0,.036,0,.072,0,.108q0,6.733,0,13.467a2.493,2.493,0,0,1-.069.64,1.891,1.891,0,0,1-2.068,1.374q-8.9,0-17.8,0a2.13,2.13,0,0,1-.691-.084.9.9,0,0,1,.153-1.733,3.465,3.465,0,0,1,.593-.026q2.7,0,5.409,0h.592v-7.352H248.382v.695q0,5.841,0,11.682c0,.18.007.361-.007.541a.879.879,0,0,1-.857.871.9.9,0,0,1-.968-.82,4.548,4.548,0,0,1-.013-.594q0-11.871,0-23.743v-.681c-.932,0-1.794.01-2.656,0a.918.918,0,0,1-1.027-.878.95.95,0,0,1,1.011-.963c.162-.009.325,0,.487,0h15.071c.143-1.392.275-2.713.416-4.034a3.6,3.6,0,0,1,1.1-2.231c.645-.637,1.282-1.281,2.006-2.006ZM230.843,148.9c.745-.517,1.431-1.066,2.183-1.5a8.8,8.8,0,0,1,4.727-.834c1.159.019,1.41-.242,1.41-1.376q0-18,0-36.006c0-.144.007-.289,0-.432a.932.932,0,0,0-.971-.948c-.5-.018-1.009-.006-1.514,0a5.557,5.557,0,0,0-5.83,5.85q0,17.381,0,34.763ZM276.8,117.527l-3.886-3.9-9.892,9.889,3.887,3.891Zm-6.266,25.378H260.418v7.332h10.115Zm6.415-33.559,4.061,4.077c.4-.418.855-.857,1.273-1.324a.89.89,0,0,0-.008-1.311q-1.333-1.378-2.714-2.708a.868.868,0,0,0-1.267-.032C277.81,108.476,277.363,108.943,276.948,109.347Zm-1.3,1.545-1.29,1.224,3.839,3.846,1.3-1.227Zm-13.967,14.225c-.114,1.042-.229,2.078-.338,3.115-.043.409.1.794.54.77,1.132-.062,2.26-.206,3.374-.316Z" fill="#82c14e"/>
  </g>
</svg>
