<svg xmlns="http://www.w3.org/2000/svg" width="61" height="61" viewBox="0 0 61 61">
  <g id="Group_1367" data-name="Group 1367" transform="translate(-165 -41.276)">
    <path id="Path_1745" data-name="Path 1745" d="M175.127,41.276a1.614,1.614,0,0,1,.847,1.62c-.033,2.619-.011,5.24-.014,7.859,0,1.063-.417,1.48-1.48,1.481-2.62,0-5.24-.019-7.859.014A1.612,1.612,0,0,1,165,51.4V41.276ZM173.55,43.7h-6.121v6.123h6.121Z" fill="#82c14e"/>
    <path id="Path_1746" data-name="Path 1746" d="M595.858,51.4a1.626,1.626,0,0,1-1.62.847c-2.62-.034-5.241-.011-7.861-.014-1.065,0-1.478-.415-1.479-1.48,0-2.62.02-5.241-.014-7.861a1.6,1.6,0,0,1,.848-1.618h10.127Zm-2.414-1.574V43.694h-6.124v6.135Z" transform="translate(-369.858)" fill="#82c14e"/>
    <path id="Path_1747" data-name="Path 1747" d="M585.731,472.136a1.6,1.6,0,0,1-.848-1.619c.034-2.62.012-5.241.014-7.862,0-1.066.412-1.479,1.479-1.48,2.621,0,5.242.02,7.862-.014a1.624,1.624,0,0,1,1.62.847v10.127Zm7.7-2.41v-6.121h-6.122v6.121Z" transform="translate(-369.858 -369.86)" fill="#82c14e"/>
    <path id="Path_1748" data-name="Path 1748" d="M165,462.012a1.61,1.61,0,0,1,1.619-.847c2.62.033,5.24.011,7.86.014,1.065,0,1.479.415,1.48,1.48,0,2.62-.019,5.24.014,7.86a1.617,1.617,0,0,1-.847,1.62H165Zm2.425,1.575v6.121h6.121v-6.121Z" transform="translate(0 -369.863)" fill="#82c14e"/>
    <path id="Path_1749" data-name="Path 1749" d="M267.793,150.618l2.4,2.431c1-1.007,2.012-2.042,3.047-3.052a1.189,1.189,0,0,1,2.065.5,1.246,1.246,0,0,1-.433,1.228q-1.309,1.3-2.612,2.611c-.138.138-.268.284-.394.418l1.915,1.915c.285-.338.554-.707.874-1.025a1.194,1.194,0,1,1,1.669,1.69c-.3.314-.622.606-1.047,1.017.58.54,1.123,1.025,1.642,1.534s1,1.022,1.442,1.484l6.7-6.7c-1.406-1.4-2.882-2.87-4.357-4.34-.811-.809-.919-1.477-.332-2.044.566-.547,1.226-.435,2,.343q2.528,2.527,5.054,5.055c.8.8.809,1.388.014,2.184q-3.935,3.942-7.876,7.877c-.792.791-1.378.783-2.183-.022q-5.393-5.39-10.781-10.785c-.154-.154-.277-.338-.575-.707a3.783,3.783,0,0,1-.4.668c-1.719,1.735-3.434,3.474-5.187,5.174a4.018,4.018,0,0,1-1.379.869c-2.812,1.024-5.641,2-8.464,2.991-.075.026-.151.048-.225.078a1.207,1.207,0,0,1-1.61-1.578c1.07-3.027,2.124-6.06,3.207-9.083a2.522,2.522,0,0,1,.594-.869q2.637-2.67,5.306-5.308a5.515,5.515,0,0,1,.685-.472,6.958,6.958,0,0,1-.691-.509q-5.4-5.386-10.786-10.78c-.834-.834-.836-1.4-.013-2.223q3.916-3.918,7.835-7.834c.822-.821,1.389-.817,2.224.018q5.393,5.39,10.779,10.787a4.395,4.395,0,0,1,.407.572c1.784-1.787,3.45-3.459,5.12-5.128,1.067-1.067,2.114-2.155,3.215-3.186a5.412,5.412,0,0,1,6.032-.953,5.48,5.48,0,0,1,3.142,5.248,5.309,5.309,0,0,1-1.295,3.258c-.206.241-.43.468-.654.693q-7.769,7.772-15.544,15.54A5.067,5.067,0,0,1,267.793,150.618Zm6.712-18.55-19.519,19.517,4.242,4.252,19.524-19.524Zm-18.364,6.9a4.138,4.138,0,0,1,.376-.51c.878-.89,1.758-1.779,2.656-2.65a1.122,1.122,0,0,1,1.468-.179,1.091,1.091,0,0,1,.507,1.286,1.82,1.82,0,0,1-.474.732c-.979,1-1.978,1.983-2.944,2.946l2.235,2.242,6.529-6.511-10.512-10.514-6.488,6.48L252.6,135.4c.266-.3.55-.651.876-.965a1.172,1.172,0,0,1,1.744-.066,1.191,1.191,0,0,1-.072,1.749c-.312.327-.656.624-.953.9Zm24.4-4.386c.723-.717,1.458-1.387,2.124-2.12a3.045,3.045,0,0,0,.006-4.075,2.982,2.982,0,0,0-4.033-.508,30.864,30.864,0,0,0-2.47,2.326Zm-26.956,19.29-1.788,5.116,5.109-1.8Z" transform="translate(-71.745 -71.761)" fill="#82c14e"/>
    <path id="Path_1750" data-name="Path 1750" d="M468.444,503.575c-.4,0-.8.019-1.191,0a1.194,1.194,0,0,1-1.156-1.2,1.175,1.175,0,0,1,1.133-1.16c.833-.031,1.668-.031,2.5,0a1.141,1.141,0,0,1,1.14,1.2,1.158,1.158,0,0,1-1.177,1.167c-.416.02-.834,0-1.251,0Z" transform="translate(-265.224 -405.115)" fill="#82c14e"/>
    <path id="Path_1751" data-name="Path 1751" d="M338.153,83.581c-.4,0-.8.016-1.191,0A1.156,1.156,0,0,1,335.8,82.4a1.145,1.145,0,0,1,1.151-1.189c.813-.028,1.628-.026,2.441,0a1.189,1.189,0,0,1,1.183,1.176,1.207,1.207,0,0,1-1.227,1.194C338.947,83.594,338.55,83.582,338.153,83.581Z" transform="translate(-150.447 -35.159)" fill="#82c14e"/>
    <path id="Path_1752" data-name="Path 1752" d="M338.158,503.581c-.4,0-.8.016-1.191,0A1.158,1.158,0,0,1,335.8,502.4a1.143,1.143,0,0,1,1.145-1.195c.813-.028,1.628-.025,2.442,0a1.191,1.191,0,0,1,1.189,1.17,1.206,1.206,0,0,1-1.221,1.2C338.953,503.594,338.555,503.581,338.158,503.581Z" transform="translate(-150.447 -405.119)" fill="#82c14e"/>
    <path id="Path_1753" data-name="Path 1753" d="M468.471,81.253c.417,0,.835-.019,1.251,0a1.184,1.184,0,0,1-.013,2.367q-1.22.036-2.442,0a1.184,1.184,0,0,1-1.168-1.188,1.2,1.2,0,0,1,1.181-1.179C467.676,81.235,468.074,81.252,468.471,81.253Z" transform="translate(-265.226 -35.208)" fill="#82c14e"/>
    <path id="Path_1754" data-name="Path 1754" d="M203.3,218.51c0,.4.02.8,0,1.191a1.183,1.183,0,0,1-2.366-.033c-.022-.813-.025-1.629,0-2.442a1.183,1.183,0,0,1,2.363-.026C203.328,217.635,203.3,218.073,203.3,218.51Z" transform="translate(-31.637 -153.981)" fill="#82c14e"/>
    <path id="Path_1755" data-name="Path 1755" d="M623.3,218.5c0,.4.018.8,0,1.191a1.183,1.183,0,0,1-2.367,0q-.036-1.22,0-2.442a1.184,1.184,0,0,1,2.367,0C623.322,217.667,623.3,218.085,623.3,218.5Z" transform="translate(-401.596 -153.989)" fill="#82c14e"/>
    <path id="Path_1756" data-name="Path 1756" d="M203.31,348.8c0,.4.018.8,0,1.191a1.185,1.185,0,1,1-2.371-.033c-.019-.794-.021-1.589,0-2.382a1.183,1.183,0,0,1,2.367-.027C203.329,347.968,203.309,348.386,203.31,348.8Z" transform="translate(-31.642 -268.764)" fill="#82c14e"/>
    <path id="Path_1757" data-name="Path 1757" d="M623.3,348.825c0,.4.019.8,0,1.191a1.184,1.184,0,0,1-2.367-.017q-.035-1.22,0-2.442a1.183,1.183,0,0,1,2.367.017C623.322,347.991,623.3,348.408,623.3,348.825Z" transform="translate(-401.597 -268.764)" fill="#82c14e"/>
    <path id="Path_1758" data-name="Path 1758" d="M620.97,283.6c0-.4-.016-.791,0-1.186a1.183,1.183,0,0,1,2.365-.007c.028.829.031,1.661,0,2.49a1.154,1.154,0,0,1-1.206,1.13,1.171,1.171,0,0,1-1.158-1.182C620.954,284.429,620.969,284.013,620.97,283.6Z" transform="translate(-401.64 -211.386)" fill="#82c14e"/>
    <path id="Path_1759" data-name="Path 1759" d="M203.3,283.678c0,.4.02.792,0,1.185a1.171,1.171,0,0,1-1.182,1.159,1.156,1.156,0,0,1-1.183-1.154c-.026-.829-.028-1.661,0-2.49a1.15,1.15,0,0,1,1.146-1.129,1.166,1.166,0,0,1,1.214,1.124C203.323,282.807,203.3,283.243,203.3,283.678Z" transform="translate(-31.634 -211.383)" fill="#82c14e"/>
    <path id="Path_1760" data-name="Path 1760" d="M403.3,83.584c-.376,0-.752.013-1.126,0a1.176,1.176,0,0,1-1.207-1.194,1.159,1.159,0,0,1,1.162-1.175c.809-.027,1.621-.025,2.43,0a1.185,1.185,0,1,1-.014,2.369C404.13,83.6,403.714,83.584,403.3,83.584Z" transform="translate(-207.852 -35.162)" fill="#82c14e"/>
    <path id="Path_1761" data-name="Path 1761" d="M403.323,503.588c-.376,0-.751.011-1.126,0a1.179,1.179,0,0,1-1.232-1.17,1.164,1.164,0,0,1,1.2-1.2q1.185-.033,2.371,0a1.187,1.187,0,1,1-.024,2.372C404.114,503.6,403.718,503.588,403.323,503.588Z" transform="translate(-207.851 -405.126)" fill="#82c14e"/>
    <path id="Path_1762" data-name="Path 1762" d="M203.294,413.38a4.846,4.846,0,0,1,0,.654,1.184,1.184,0,0,1-2.35-.036,8.758,8.758,0,0,1-.008-1.19,1.185,1.185,0,0,1,2.371-.023c.015.2,0,.4,0,.6Z" transform="translate(-31.636 -326.222)" fill="#82c14e"/>
    <path id="Path_1763" data-name="Path 1763" d="M623.293,413.38a4.8,4.8,0,0,1,0,.654,1.158,1.158,0,0,1-1.194,1.022A1.146,1.146,0,0,1,620.938,414a8.913,8.913,0,0,1-.008-1.19,1.185,1.185,0,0,1,2.371-.022c.015.2,0,.4,0,.6Z" transform="translate(-401.596 -326.221)" fill="#82c14e"/>
    <path id="Path_1764" data-name="Path 1764" d="M203.288,163.83a4.586,4.586,0,0,1-.006.713,1.181,1.181,0,0,1-2.341-.058,8.642,8.642,0,0,1-.011-1.19,1.187,1.187,0,1,1,2.374,0c.01.178,0,.357,0,.536Z" transform="translate(-31.636 -106.434)" fill="#82c14e"/>
    <path id="Path_1765" data-name="Path 1765" d="M533.009,83.644c-1.116,0-1.706-.423-1.69-1.212.016-.769.589-1.17,1.674-1.17.179,0,.358-.006.536,0a1.19,1.19,0,1,1,.016,2.378C533.367,83.651,533.188,83.644,533.009,83.644Z" transform="translate(-322.676 -35.22)" fill="#82c14e"/>
    <path id="Path_1766" data-name="Path 1766" d="M283.524,503.563a5.791,5.791,0,0,1-.654,0,1.157,1.157,0,0,1-1.057-1.162,1.14,1.14,0,0,1,1.023-1.188,7.484,7.484,0,0,1,1.308-.007,1.18,1.18,0,0,1,1.1,1.191,1.2,1.2,0,0,1-1.127,1.171c-.2.017-.4,0-.6,0Z" transform="translate(-102.896 -405.108)" fill="#82c14e"/>
    <path id="Path_1767" data-name="Path 1767" d="M283.487,83.58c-.2,0-.4.017-.6,0a1.184,1.184,0,0,1-.025-2.357,8.28,8.28,0,0,1,1.19-.01,1.187,1.187,0,1,1-.034,2.373c-.178.009-.357,0-.536,0Z" transform="translate(-102.892 -35.162)" fill="#82c14e"/>
    <path id="Path_1768" data-name="Path 1768" d="M533.039,503.583a5.625,5.625,0,0,1-.655,0,1.183,1.183,0,0,1,.044-2.357,9.181,9.181,0,0,1,1.131-.007,1.187,1.187,0,1,1,.015,2.375c-.178.01-.357,0-.536,0Z" transform="translate(-322.676 -405.129)" fill="#82c14e"/>
    <path id="Path_1769" data-name="Path 1769" d="M620.988,163.771c0-.179-.011-.358,0-.536a1.185,1.185,0,0,1,2.368,0,8.956,8.956,0,0,1,0,1.131,1.185,1.185,0,0,1-2.371,0C620.977,164.169,620.988,163.97,620.988,163.771Z" transform="translate(-401.658 -106.434)" fill="#82c14e"/>
    <path id="Path_1770" data-name="Path 1770" d="M501.087,306.171a1.191,1.191,0,0,1,1.164,1.189,1.228,1.228,0,0,1-1.19,1.179,1.192,1.192,0,0,1-1.177-1.235A1.153,1.153,0,0,1,501.087,306.171Z" transform="translate(-294.985 -233.335)" fill="#82c14e"/>
  </g>
</svg>
